<?xml version="1.0" standalone="no"?>
<!DOCTYPE svg PUBLIC "-//W3C//DTD SVG 20010904//EN"
 "http://www.w3.org/TR/2001/REC-SVG-20010904/DTD/svg10.dtd">
<svg version="1.0" xmlns="http://www.w3.org/2000/svg"
 width="200.000000pt" height="65.000000pt" viewBox="0 0 200.000000 65.000000"
 preserveAspectRatio="xMidYMid meet">
<metadata>
Created by potrace 1.16, written by Peter Selinger 2001-2019
</metadata>
<g transform="translate(0.000000,65.000000) scale(0.100000,-0.100000)"
fill="#000000" stroke="none">
<path d="M222 600 c-90 -32 -133 -68 -170 -140 -29 -60 -32 -71 -28 -140 5
-91 45 -198 90 -241 38 -35 104 -59 165 -59 59 0 129 40 194 109 44 48 47 55
47 106 l0 55 35 0 35 0 1 53 c1 28 4 42 6 30 3 -15 12 -23 24 -23 17 0 19 -7
19 -65 0 -63 1 -65 25 -65 24 0 25 2 25 65 0 37 4 65 10 65 6 0 10 -16 10 -35
0 -20 7 -49 15 -65 12 -24 22 -30 48 -30 46 0 57 16 57 82 0 51 -2 58 -20 58
-17 0 -20 -7 -20 -39 0 -22 -4 -43 -10 -46 -6 -4 -10 12 -10 39 0 39 -3 46
-20 46 -15 0 -20 7 -20 25 0 24 -2 25 -64 25 -63 0 -64 0 -70 31 -3 17 -6 48
-6 69 0 44 -11 50 -106 50 -48 0 -65 4 -79 20 -18 20 -74 40 -110 39 -11 0
-44 -9 -73 -19z"/>
<path d="M930 385 c0 -23 -4 -25 -45 -25 l-45 0 0 -70 0 -70 30 0 c28 0 30 2
30 39 0 25 5 41 15 45 11 4 15 -2 15 -23 0 -15 8 -35 18 -44 26 -23 87 -22
111 2 19 19 20 19 37 0 18 -21 64 -25 94 -9 36 19 34 97 -4 122 -21 15 -73 8
-90 -11 -17 -19 -18 -19 -37 0 -10 10 -32 19 -49 19 -25 0 -30 4 -30 25 0 20
-5 25 -25 25 -20 0 -25 -5 -25 -25z"/>
<path d="M1230 315 l0 -95 43 0 c57 0 90 19 104 60 l12 35 0 -31 c1 -17 9 -38
19 -47 40 -37 136 -4 117 39 -4 10 -7 29 -6 41 4 44 -76 59 -116 21 l-23 -21
0 22 c0 12 -11 33 -25 46 -19 20 -34 25 -75 25 l-50 0 0 -95z"/>
<path d="M1552 398 c-7 -7 -12 -44 -12 -95 0 -82 0 -83 25 -83 21 0 25 5 25
30 0 25 4 30 25 30 21 0 25 5 25 29 0 25 -5 30 -27 34 l-28 4 28 2 c23 1 27 5
27 31 0 28 -2 30 -38 30 -21 0 -43 -5 -50 -12z"/>
<path d="M1870 340 c-45 -45 -11 -120 53 -120 42 0 67 26 67 68 0 41 -31 72
-70 72 -17 0 -39 -9 -50 -20z"/>
</g>
</svg>
